<mxfile host="app.diagrams.net" agent="Mozilla/5.0 (Windows NT 10.0; Win64; x64; rv:133.0) Gecko/20100101 Firefox/133.0" version="25.0.3">
  <diagram name="Page-1" id="k-THSDeoW30y4i_OSr86">
    <mxGraphModel dx="1221" dy="626" grid="1" gridSize="10" guides="1" tooltips="1" connect="1" arrows="1" fold="1" page="1" pageScale="1" pageWidth="850" pageHeight="1100" math="0" shadow="0">
      <root>
        <mxCell id="0" />
        <mxCell id="1" parent="0" />
        <mxCell id="lPQPI1vn5ITMTP8zTNPG-8" style="edgeStyle=orthogonalEdgeStyle;rounded=0;orthogonalLoop=1;jettySize=auto;html=1;entryX=0;entryY=0.5;entryDx=0;entryDy=0;" parent="1" source="lPQPI1vn5ITMTP8zTNPG-2" target="lPQPI1vn5ITMTP8zTNPG-5" edge="1">
          <mxGeometry relative="1" as="geometry" />
        </mxCell>
        <mxCell id="lPQPI1vn5ITMTP8zTNPG-15" value="PlayerDist &amp;lt; DetectionRange" style="edgeLabel;html=1;align=center;verticalAlign=middle;resizable=0;points=[];" parent="lPQPI1vn5ITMTP8zTNPG-8" vertex="1" connectable="0">
          <mxGeometry x="-0.0556" y="2" relative="1" as="geometry">
            <mxPoint as="offset" />
          </mxGeometry>
        </mxCell>
        <mxCell id="lPQPI1vn5ITMTP8zTNPG-2" value="HighSpeedChase" style="rounded=0;whiteSpace=wrap;html=1;" parent="1" vertex="1">
          <mxGeometry x="380" y="390" width="120" height="60" as="geometry" />
        </mxCell>
        <mxCell id="lPQPI1vn5ITMTP8zTNPG-5" value="Chase" style="rounded=0;whiteSpace=wrap;html=1;" parent="1" vertex="1">
          <mxGeometry x="700" y="390" width="120" height="60" as="geometry" />
        </mxCell>
        <mxCell id="WeJ5UDep8H0EUXECQAyC-5" value="GetAround" style="rounded=0;whiteSpace=wrap;html=1;" vertex="1" parent="1">
          <mxGeometry x="700" y="190" width="120" height="60" as="geometry" />
        </mxCell>
        <mxCell id="WeJ5UDep8H0EUXECQAyC-7" value="" style="endArrow=classic;html=1;rounded=0;entryX=0.25;entryY=1;entryDx=0;entryDy=0;exitX=0.25;exitY=0;exitDx=0;exitDy=0;" edge="1" parent="1" source="lPQPI1vn5ITMTP8zTNPG-5" target="WeJ5UDep8H0EUXECQAyC-5">
          <mxGeometry width="50" height="50" relative="1" as="geometry">
            <mxPoint x="680" y="430" as="sourcePoint" />
            <mxPoint x="730" y="380" as="targetPoint" />
          </mxGeometry>
        </mxCell>
        <mxCell id="WeJ5UDep8H0EUXECQAyC-9" value="&lt;div&gt;PlayerDist &amp;gt;&amp;nbsp;&lt;/div&gt;&lt;div&gt;Detection Range&lt;/div&gt;" style="edgeLabel;html=1;align=center;verticalAlign=middle;resizable=0;points=[];" vertex="1" connectable="0" parent="WeJ5UDep8H0EUXECQAyC-7">
          <mxGeometry x="-0.5857" relative="1" as="geometry">
            <mxPoint as="offset" />
          </mxGeometry>
        </mxCell>
        <mxCell id="WeJ5UDep8H0EUXECQAyC-11" value="&lt;div&gt;Harass Range &amp;gt;&lt;/div&gt;&lt;div&gt;&amp;nbsp;0&lt;/div&gt;" style="edgeLabel;html=1;align=center;verticalAlign=middle;resizable=0;points=[];" vertex="1" connectable="0" parent="WeJ5UDep8H0EUXECQAyC-7">
          <mxGeometry x="0.3" relative="1" as="geometry">
            <mxPoint y="-19" as="offset" />
          </mxGeometry>
        </mxCell>
        <mxCell id="WeJ5UDep8H0EUXECQAyC-12" value="" style="endArrow=classic;html=1;rounded=0;entryX=0.5;entryY=0;entryDx=0;entryDy=0;" edge="1" parent="1" target="lPQPI1vn5ITMTP8zTNPG-2">
          <mxGeometry width="50" height="50" relative="1" as="geometry">
            <mxPoint x="730" y="320" as="sourcePoint" />
            <mxPoint x="730" y="380" as="targetPoint" />
            <Array as="points">
              <mxPoint x="440" y="320" />
            </Array>
          </mxGeometry>
        </mxCell>
        <mxCell id="WeJ5UDep8H0EUXECQAyC-13" value="Harass Range == 0" style="edgeLabel;html=1;align=center;verticalAlign=middle;resizable=0;points=[];" vertex="1" connectable="0" parent="1">
          <mxGeometry x="580" y="320" as="geometry" />
        </mxCell>
        <mxCell id="WeJ5UDep8H0EUXECQAyC-14" value="" style="endArrow=classic;html=1;rounded=0;entryX=0.75;entryY=0;entryDx=0;entryDy=0;exitX=0.75;exitY=1;exitDx=0;exitDy=0;" edge="1" parent="1" source="WeJ5UDep8H0EUXECQAyC-5" target="lPQPI1vn5ITMTP8zTNPG-5">
          <mxGeometry width="50" height="50" relative="1" as="geometry">
            <mxPoint x="680" y="430" as="sourcePoint" />
            <mxPoint x="730" y="380" as="targetPoint" />
          </mxGeometry>
        </mxCell>
        <mxCell id="WeJ5UDep8H0EUXECQAyC-15" value="&lt;div&gt;PlayerDist &amp;lt; &lt;br&gt;&lt;/div&gt;&lt;div&gt;Detection Range&lt;/div&gt;" style="edgeLabel;html=1;align=center;verticalAlign=middle;resizable=0;points=[];" vertex="1" connectable="0" parent="WeJ5UDep8H0EUXECQAyC-14">
          <mxGeometry x="-0.0143" y="-3" relative="1" as="geometry">
            <mxPoint y="1" as="offset" />
          </mxGeometry>
        </mxCell>
        <mxCell id="WeJ5UDep8H0EUXECQAyC-16" value="Avoid Ship" style="rounded=0;whiteSpace=wrap;html=1;" vertex="1" parent="1">
          <mxGeometry x="700" y="590" width="120" height="60" as="geometry" />
        </mxCell>
        <mxCell id="WeJ5UDep8H0EUXECQAyC-17" value="" style="endArrow=classic;html=1;rounded=0;entryX=0.25;entryY=0;entryDx=0;entryDy=0;exitX=0.25;exitY=1;exitDx=0;exitDy=0;" edge="1" parent="1" source="lPQPI1vn5ITMTP8zTNPG-5" target="WeJ5UDep8H0EUXECQAyC-16">
          <mxGeometry width="50" height="50" relative="1" as="geometry">
            <mxPoint x="730" y="450" as="sourcePoint" />
            <mxPoint x="730" y="590" as="targetPoint" />
          </mxGeometry>
        </mxCell>
        <mxCell id="WeJ5UDep8H0EUXECQAyC-18" value="&lt;div&gt;PlayerDist &amp;lt; &lt;br&gt;&lt;/div&gt;&lt;div&gt;Avoid Ship Range&lt;/div&gt;" style="edgeLabel;html=1;align=center;verticalAlign=middle;resizable=0;points=[];" vertex="1" connectable="0" parent="WeJ5UDep8H0EUXECQAyC-17">
          <mxGeometry x="-0.0143" y="-3" relative="1" as="geometry">
            <mxPoint x="3" y="31" as="offset" />
          </mxGeometry>
        </mxCell>
        <mxCell id="WeJ5UDep8H0EUXECQAyC-19" style="edgeStyle=orthogonalEdgeStyle;rounded=0;orthogonalLoop=1;jettySize=auto;html=1;" edge="1" parent="1" source="lPQPI1vn5ITMTP8zTNPG-5">
          <mxGeometry relative="1" as="geometry">
            <mxPoint x="820" y="440" as="targetPoint" />
            <Array as="points">
              <mxPoint x="970" y="400" />
              <mxPoint x="970" y="440" />
              <mxPoint x="820" y="440" />
            </Array>
          </mxGeometry>
        </mxCell>
        <mxCell id="WeJ5UDep8H0EUXECQAyC-20" value="" style="endArrow=classic;html=1;rounded=0;entryX=0.75;entryY=1;entryDx=0;entryDy=0;exitX=0.75;exitY=0;exitDx=0;exitDy=0;" edge="1" parent="1" source="WeJ5UDep8H0EUXECQAyC-16" target="lPQPI1vn5ITMTP8zTNPG-5">
          <mxGeometry width="50" height="50" relative="1" as="geometry">
            <mxPoint x="740" y="460" as="sourcePoint" />
            <mxPoint x="740" y="600" as="targetPoint" />
          </mxGeometry>
        </mxCell>
        <mxCell id="WeJ5UDep8H0EUXECQAyC-21" value="&lt;div&gt;Ship at Offset&amp;nbsp;&lt;/div&gt;&lt;div&gt;position from player&lt;/div&gt;" style="edgeLabel;html=1;align=center;verticalAlign=middle;resizable=0;points=[];" vertex="1" connectable="0" parent="WeJ5UDep8H0EUXECQAyC-20">
          <mxGeometry x="-0.0143" y="-3" relative="1" as="geometry">
            <mxPoint y="-21" as="offset" />
          </mxGeometry>
        </mxCell>
        <mxCell id="WeJ5UDep8H0EUXECQAyC-22" value="&lt;div&gt;Ship at Offset&amp;nbsp;&lt;/div&gt;&lt;div&gt;position from player&lt;/div&gt;" style="edgeLabel;html=1;align=center;verticalAlign=middle;resizable=0;points=[];" vertex="1" connectable="0" parent="1">
          <mxGeometry x="970" y="420" as="geometry" />
        </mxCell>
      </root>
    </mxGraphModel>
  </diagram>
</mxfile>
